<svg width="25" height="24" viewBox="0 0 25 24" fill="none" xmlns="http://www.w3.org/2000/svg">
<path d="M19.6837 11.9144C19.731 15.7896 16.627 18.9684 12.7515 19.0157C8.876 19.063 5.69699 15.9592 5.64968 12.084C5.60238 8.20875 8.70637 5.02995 12.5819 4.98265C16.4574 4.93535 19.6364 8.03912 19.6837 11.9144Z" fill="#E60AB4"/>
<path d="M12.6667 3.02386C7.71628 3.02386 3.69073 7.05077 3.69073 11.9992C3.69073 16.9476 7.71791 20.9745 12.6667 20.9745C17.6154 20.9745 21.6426 16.9476 21.6426 11.9992C21.6426 7.05077 17.6154 3.02386 12.6667 3.02386ZM12.6667 21.4654C7.44715 21.4654 3.2014 17.22 3.2014 12.0008C3.2014 6.78166 7.44715 2.53619 12.6667 2.53619C17.8862 2.53619 22.1319 6.78166 22.1319 12.0008C22.1319 17.22 17.8862 21.4654 12.6667 21.4654Z" fill="#0037FC"/>
<path d="M10.0373 10.8559C9.95741 10.8559 9.88238 10.8086 9.84976 10.7319C9.74537 10.4857 9.69318 10.2263 9.69318 9.95721C9.69318 8.85956 10.5854 7.96741 11.6831 7.96741C12.7808 7.96741 13.6731 8.85956 13.6731 9.95721C13.6731 10.0697 13.5817 10.1611 13.4692 10.1611C13.3566 10.1611 13.2653 10.0697 13.2653 9.95721C13.2653 9.08463 12.5558 8.37515 11.6831 8.37515C10.8105 8.37515 10.101 9.08463 10.101 9.95721C10.101 10.1709 10.1434 10.378 10.2249 10.5737C10.269 10.6765 10.22 10.7972 10.1156 10.8412C10.0895 10.8526 10.0634 10.8575 10.0357 10.8575" fill="#F5F501"/>
<path d="M9.30987 11.7871C9.24462 11.7871 9.18101 11.7561 9.14186 11.6991C8.78955 11.1853 8.60197 10.5835 8.60197 9.95716C8.60197 8.2593 9.98351 6.87622 11.6831 6.87622C13.3827 6.87622 14.7643 8.25767 14.7643 9.95716C14.7643 10.1659 14.7431 10.3747 14.7023 10.5769C14.6794 10.6878 14.5718 10.758 14.4609 10.7368C14.35 10.7139 14.2798 10.6063 14.3027 10.4954C14.3385 10.3192 14.3565 10.1366 14.3565 9.95716C14.3565 8.48274 13.1576 7.28397 11.6831 7.28397C10.2086 7.28397 9.00975 8.48274 9.00975 9.95716C9.00975 10.5003 9.17122 11.0222 9.47787 11.4675C9.54148 11.5604 9.51865 11.6876 9.42568 11.7512C9.38979 11.7757 9.35065 11.7871 9.30987 11.7871Z" fill="#F5F501"/>
<path d="M0.911337 12.2438C0.775955 12.2438 0.666672 12.1346 0.666672 11.9992C0.666672 5.38226 6.05093 0 12.6667 0C12.8021 0 12.9113 0.109276 12.9113 0.244648C12.9113 0.38002 12.8021 0.489297 12.6667 0.489297C6.32006 0.489297 1.156 5.65301 1.156 11.9992C1.156 12.1346 1.04672 12.2438 0.911337 12.2438Z" fill="#0037FC"/>
<path d="M12.6667 24C12.5313 24 12.422 23.8907 12.422 23.7554C12.422 23.62 12.5313 23.5107 12.6667 23.5107C19.0149 23.5107 24.1773 18.347 24.1773 12.0008C24.1773 11.8654 24.2866 11.7562 24.422 11.7562C24.5574 11.7562 24.6667 11.8654 24.6667 12.0008C24.6667 18.6177 19.2824 24 12.6667 24Z" fill="#0037FC"/>
<path d="M15.6989 13.7101C15.6989 14.7164 15.4265 15.4862 14.8899 16C14.1216 16.7372 13.0483 16.6997 13.0288 16.6997C12.0208 16.6997 11.2574 16.4354 10.7632 15.9168C10.1075 15.2301 10.1434 14.3103 10.145 14.2907V13.4997C10.145 13.2958 10.3114 13.1294 10.5152 13.1294C10.5903 13.1294 10.662 13.1523 10.7224 13.193V13.9205C10.7224 14.033 10.8137 14.1243 10.9263 14.1243C11.0388 14.1243 11.1302 14.033 11.1302 13.9205V13.1017V9.96205C11.1302 9.65379 11.3814 9.40262 11.6896 9.40262C11.9979 9.40262 12.2491 9.65379 12.2491 9.96205V12.5211C12.2491 12.6336 12.3404 12.7249 12.453 12.7249C12.5655 12.7249 12.6569 12.6336 12.6569 12.5211V12.1345C12.6569 11.9307 12.8233 11.7643 13.0271 11.7643C13.231 11.7643 13.3974 11.9307 13.3974 12.1345V12.9256C13.3974 13.0381 13.4887 13.1294 13.6013 13.1294C13.7138 13.1294 13.8052 13.0381 13.8052 12.9256V12.5097C13.8052 12.3058 13.9715 12.1394 14.1754 12.1394C14.3793 12.1394 14.5457 12.3058 14.5457 12.5097V13.3056C14.5457 13.4181 14.637 13.5094 14.7496 13.5094C14.8621 13.5094 14.9535 13.4181 14.9535 13.3056V12.919C14.9535 12.7152 15.1198 12.5488 15.3237 12.5488C15.5276 12.5488 15.694 12.7152 15.694 12.919V13.7101H15.6989ZM15.3286 12.1411C15.1753 12.1411 15.035 12.1867 14.9143 12.2634C14.8099 11.9551 14.5229 11.7317 14.1803 11.7317C14.0237 11.7317 13.8786 11.779 13.7562 11.8589C13.6453 11.5653 13.3631 11.3565 13.0304 11.3565C12.895 11.3565 12.7711 11.3941 12.6601 11.4544V9.96205C12.6601 9.42871 12.2263 8.99487 11.6929 8.99487C11.1595 8.99487 10.7257 9.42871 10.7257 9.96205V12.7527C10.6588 12.7347 10.5903 12.7217 10.5185 12.7217C10.0895 12.7217 9.74048 13.0707 9.74048 13.4997V14.2793C9.73884 14.3233 9.69154 15.3769 10.4679 16.1924C11.0421 16.7992 11.9049 17.1058 13.0222 17.1058C13.0288 17.1058 13.0483 17.1058 13.0842 17.1058C13.3452 17.1058 14.3777 17.0552 15.172 16.2952C15.7951 15.7015 16.1099 14.8306 16.1099 13.7068V12.9158C16.1099 12.4868 15.7609 12.1378 15.3319 12.1378" fill="white"/>
</svg>
